<?xml version="1.0" encoding="utf-8"?>
<!-- Generator: Adobe Illustrator 13.0.0, SVG Export Plug-In . SVG Version: 6.00 Build 14948)  -->
<!DOCTYPE svg PUBLIC "-//W3C//DTD SVG 1.1//EN" "http://www.w3.org/Graphics/SVG/1.1/DTD/svg11.dtd">
<svg version="1.1" id="Layer_1" xmlns="http://www.w3.org/2000/svg" xmlns:xlink="http://www.w3.org/1999/xlink" x="0px" y="0px"
	 width="516px" height="726px" viewBox="0 0 516 726" enable-background="new 0 0 516 726" xml:space="preserve">
<g>
	<path fill="#900020" stroke="#900020" d="M41.807,519.629l110.925-0.038V218.49c10.711-84.766,177.53-117.437,173.072,34.434h4.458
		c44.613-61.809,92.781-16.774,102.598,0.885h3.563c6.245-122.741-73.687-211.862-192.689-217.221
		C125.976,31.292,46.578,131.067,43.898,212.307C41.218,293.547,41.807,519.629,41.807,519.629z"/>
	<g>
		<path fill="#900020" stroke="#900020" d="M379.864,327.981c26.31,0,47.646-20.716,47.646-46.273s-21.336-46.272-47.646-46.272
			c-26.311,0-47.644,20.715-47.644,46.272S353.554,327.981,379.864,327.981z"/>
		<path fill="#900020" stroke="#900020" d="M379.864,281.708"/>
	</g>
	<path fill="#900020" stroke="#900020" d="M324.018,519.591h110.629V382.722c35.679-18.537,49.954-58.274,56.197-77.697h-59.771
		c-31.223,63.573-97.238,27.368-104.375-0.884h-56.201c7.132,43.263,35.681,67.991,54.414,78.582L324.018,519.591z"/>
	<path fill="#900020" stroke="#900020" d="M173.925,450.715H207.6c4.238,1.771,3.572,7.732,0.446,9.714H196.45v54.085
		c-2.678,4.199-8.696,3.095-10.482,0.445V460.65h-12.269C169.459,457.343,171.026,451.38,173.925,450.715z"/>
	<path fill="#900020" stroke="#900020" d="M217.636,452.046v62.248c1.559,2.21,7.175,4.146,10.256,0.22v-27.148h27.21v26.489
		c3.221,2.728,7.56,2.859,9.37,0v-61.369c-1.56-1.991-7.356-2.648-9.589,0v24.497h-26.544v-24.717
		C225.439,449.389,218.748,449.837,217.636,452.046z"/>
	<path fill="#900020" stroke="#900020" d="M276.514,456.677v53.645c1.787,5.076,2.453,5.962,6.473,7.287h23.417
		c1.56-3.095,1.334-8.611-0.672-9.717h-16.282c-1.558-1.323-2.006-1.989-2.233-2.866v-13.907c0.228-1.104,0.676-1.323,1.787-1.552
		h15.168c2.901-1.322,2.006-7.505,0.446-8.83c-1.56-1.322-0.671-0.438-0.671-0.438H289.23c-1.566-1.323-2.452-2.647-2.452-3.972
		c-0.228-0.667,0-12.144,0-12.144c0.438-1.326,1.331-2.429,2.452-2.65h15.387c3.565-0.882,3.565-5.959,1.114-8.828H282.76
		C279.86,453.371,277.854,453.142,276.514,456.677z"/>
	<path fill="#900020" stroke="#900020" d="M48.356,537.469v57.837c2.899,2.874,9.589,1.324,10.264,0.227v-51.881
		c1.34-2.867,2.453-1.543,3.346-1.543c11.446-2.063,23.026,16.829-1.568,19.43c-1.559,1.544-2.671,6.4,0.675,8.384h10.482
		c2.453,1.104,3.118,1.77,3.792,4.199v20.966c1.778,2.646,8.25,2.209,8.697,0.885v-23.623c0.218-3.531-0.674-5.516-4.012-7.723
		c-3.714-2.446-0.227-1.991,0.438-2.869c4.02-3.751,8.924-23.183-11.149-29.584c-0.665-0.438-14.047,0-14.047,0
		C51.255,532.173,48.356,537.469,48.356,537.469z"/>
	<path fill="#900020" stroke="#900020" d="M125.192,531.217c-19.077,0-34.536,15.3-34.536,34.184
		c0,18.874,15.459,34.184,34.536,34.184c19.07,0,34.536-15.31,34.536-34.184C159.728,546.517,144.263,531.217,125.192,531.217z
		 M125.413,588.654c-12.975,0-23.497-10.414-23.497-23.254c0-12.849,10.522-23.261,23.497-23.261
		c12.982,0,23.496,10.412,23.496,23.261C148.908,578.24,138.395,588.654,125.413,588.654z"/>
	<path fill="#900020" stroke="#900020" d="M197.343,562.196c-5.132-0.439-1.12-2.647,0-2.867c9.144-8.174,1.114-22.737-8.03-25.385
		h-18.514c-3.345,0.655-4.686,4.411-4.686,4.63v54.749c2.68,6.183,2.233,3.973,5.132,5.079h19.626
		C203.141,593.544,215.403,575.664,197.343,562.196z M176.597,546.299c0.446-2.866,0.893-2.866,8.031-2.419
		c7.138,0.435,8.477,9.048,2.899,12.582c-5.571,3.522-9.81,1.096-10.93-1.334V546.299z M188.2,588.685h-8.478
		c-1.56-0.658-0.893,0.441-2.899-2.208v-15.232c0-1.322,0.667-1.762,2.006-2.211h8.476
		C195.331,569.033,199.569,584.494,188.2,588.685z"/>
	<path fill="#900020" stroke="#900020" d="M243.843,531.437c-19.078,0-34.535,15.301-34.535,34.184
		c0,18.874,15.457,34.183,34.535,34.183c19.069,0,34.536-15.309,34.536-34.183C278.379,546.737,262.912,531.437,243.843,531.437z
		 M244.063,588.872c-12.975,0-23.498-10.41-23.498-23.252s10.522-23.264,23.498-23.264c12.974,0,23.496,10.422,23.496,23.264
		S257.037,588.872,244.063,588.872z"/>
	<path fill="#900020" stroke="#900020" d="M279.194,533.496h33.673c4.24,1.771,3.574,7.728,0.448,9.716h-11.597v54.084
		c-2.679,4.191-8.697,3.087-10.483,0.438v-54.301h-12.269C274.729,540.127,276.296,534.162,279.194,533.496z"/>
	<path fill="#900020" stroke="#900020" d="M326.479,535.706v61.59c2.005,1.762,9.361,1.762,10.7,0v-61.37
		C334.281,533.058,329.597,532.391,326.479,535.706z"/>
	<path fill="#900020" stroke="#900020" d="M384.684,533.716c-45.945-8.828-59.101,66.894,0,64.905c2.452-1.545,1.557-7.067,0-7.944
		c-32.781,2.427-43.711-47.465-0.896-47.244C387.81,541.002,386.022,534.162,384.684,533.716z"/>
	<path fill="#900020" stroke="#900020" d="M394.272,586.477c-1.56,0.666-2.004,1.55-1.56,2.874v6.182
		c0.446,1.324,2.233,2.423,2.233,2.423c11.814,4.418,27.132,0.413,32.333-3.746c4.687-3.752,11.825-22.965-4.236-29.365
		c-11.879-4.733-18.72-4.207-20.294-9.27c-2.681-8.61,2.005-13.466,8.03-13.688c6.018-0.219,11.15,0.888,13.603,1.765
		c2.451,0.886,2.233,0.446,2.897-0.439l0.23-6.4c-0.23-1.544-0.677-1.326-0.677-1.326c-11.596-4.856-26.449-2.349-32.116,6.623
		c-5.576,8.829-3.345,25.604,14.049,28.7c18.296,0.218,20.083,18.911,1.567,19.648C406.543,589.126,402.522,592.878,394.272,586.477
		z"/>
	<path fill="#900020" stroke="#900020" d="M403.196,617.823v53.644c1.787,5.078,2.451,5.965,6.464,7.287h23.417
		c1.569-3.094,1.341-8.611-0.664-9.715h-16.282c-1.559-1.324-2.006-1.989-2.233-2.867v-13.905c0.228-1.106,0.675-1.326,1.786-1.554
		h15.171c2.897-1.323,2.005-7.505,0.445-8.829c-1.566-1.323-0.673-0.438-0.673-0.438h-14.724c-1.559-1.324-2.452-2.649-2.452-3.973
		c-0.218-0.666,0-12.143,0-12.143c0.446-1.324,1.341-2.431,2.452-2.648H431.3c3.564-0.885,3.564-5.962,1.113-8.832H409.44
		C406.543,614.518,404.535,614.289,403.196,617.823z"/>
	<path fill="#900020" stroke="#900020" d="M359.705,614.289h33.673c4.239,1.771,3.573,7.734,0.448,9.717h-11.598v54.082
		c-2.68,4.192-8.695,3.097-10.481,0.446v-54.31h-12.27C355.247,620.92,356.806,614.955,359.705,614.289z"/>
	<path fill="#900020" stroke="#900020" d="M252.877,613.85h33.674c4.238,1.771,3.572,7.726,0.446,9.717H275.4v54.085
		c-2.677,4.191-8.695,3.086-10.481,0.437v-54.301H252.65C248.412,620.472,249.978,614.518,252.877,613.85z"/>
	<path fill="#900020" stroke="#900020" d="M226.333,615.176v61.588c2.006,1.771,9.37,1.771,10.71,0v-61.368
		C234.144,612.526,229.458,611.869,226.333,615.176z"/>
	<path fill="#900020" stroke="#900020" d="M299.713,615.62v44.59c4.679,21.85,41.031,32.231,49.509,0.884v-44.814
		c-0.446-2.208-2.451-2.865-2.451-2.865h-5.581c-1.556,0.657-1.776,1.104-2.004,1.981v44.375
		c-1.339,9.71-21.185,18.764-28.769-0.228l-0.448-44.367c-0.893-1.545-1.339-1.545-2.006-1.762h-4.237
		C301.939,613.631,300.826,613.193,299.713,615.62z"/>
	<path fill="#900020" stroke="#900020" d="M178.61,613.631h33.674c4.239,1.765,3.566,7.725,0.447,9.717h-11.596v54.084
		c-2.678,4.19-8.704,3.084-10.483,0.438v-54.303h-12.269C174.145,620.251,175.704,614.289,178.61,613.631z"/>
	<path fill="#900020" stroke="#900020" d="M132.667,665.727c-1.566,0.664-2.013,1.552-1.566,2.873v6.184
		c0.446,1.324,2.233,2.42,2.233,2.42c11.822,4.419,27.14,0.416,32.333-3.752c4.686-3.746,11.823-22.957-4.231-29.358
		c-11.877-4.731-18.726-4.206-20.299-9.27c-2.672-8.608,2.006-13.468,8.031-13.686c6.024-0.218,11.148,0.886,13.601,1.762
		c2.459,0.888,2.233,0.448,2.898-0.438l0.228-6.401c-0.228-1.543-0.667-1.325-0.667-1.325c-11.603-4.856-26.458-2.349-32.122,6.62
		c-5.571,8.831-3.346,25.604,14.056,28.701c18.287,0.219,20.081,18.912,1.559,19.648
		C144.929,668.374,140.917,672.127,132.667,665.727z"/>
	<path fill="#900020" stroke="#900020" d="M47.909,614.735v61.59c2.015,1.763,9.371,1.763,10.711,0v-61.37
		C55.721,612.088,51.036,611.422,47.909,614.735z"/>
	<path fill="#900020" stroke="#900020" d="M73.114,676.325v-59.379c1.559-3.753,6.691-7.286,10.93-2.211l26.317,45.694
		c1.112,0.664,1.339,0.664,1.559-0.22v-43.931c1.112-3.533,0.893-2.208,1.787-2.43h5.578c1.113,0.668,2.225,1.326,2.225,1.992
		v57.836c-1.339,4.856-6.463,8.603-11.595,3.086l-25.424-43.928c-1.121-0.888-2.005-1.983-2.452-0.22v43.263
		c-0.446,1.324-1.568,1.99-1.568,1.99H75.12C73.78,677.651,73.561,676.983,73.114,676.325z"/>
</g>
<rect fill="none" width="516" height="726"/>
</svg>
